<svg width="16" height="16" viewBox="0 0 16 16" fill="none" xmlns="http://www.w3.org/2000/svg">
<path d="M1.23077 14.8571H4V12.2857H1.23077V14.8571ZM4.61538 14.8571H7.69231V12.2857H4.61538V14.8571ZM1.23077 11.7143H4V8.85714H1.23077V11.7143ZM4.61538 11.7143H7.69231V8.85714H4.61538V11.7143ZM1.23077 8.28572H4V5.71429H1.23077V8.28572ZM8.30769 14.8571H11.3846V12.2857H8.30769V14.8571ZM4.61538 8.28572H7.69231V5.71429H4.61538V8.28572ZM12 14.8571H14.7692V12.2857H12V14.8571ZM8.30769 11.7143H11.3846V8.85714H8.30769V11.7143ZM4.92308 4V1.42857C4.92308 1.35119 4.89263 1.28423 4.83173 1.22768C4.77083 1.17113 4.69872 1.14286 4.61538 1.14286H4C3.91667 1.14286 3.84455 1.17113 3.78365 1.22768C3.72276 1.28423 3.69231 1.35119 3.69231 1.42857V4C3.69231 4.07738 3.72276 4.14435 3.78365 4.20089C3.84455 4.25744 3.91667 4.28571 4 4.28571H4.61538C4.69872 4.28571 4.77083 4.25744 4.83173 4.20089C4.89263 4.14435 4.92308 4.07738 4.92308 4ZM12 11.7143H14.7692V8.85714H12V11.7143ZM8.30769 8.28572H11.3846V5.71429H8.30769V8.28572ZM12 8.28572H14.7692V5.71429H12V8.28572ZM12.3077 4V1.42857C12.3077 1.35119 12.2772 1.28423 12.2163 1.22768C12.1554 1.17113 12.0833 1.14286 12 1.14286H11.3846C11.3013 1.14286 11.2292 1.17113 11.1683 1.22768C11.1074 1.28423 11.0769 1.35119 11.0769 1.42857V4C11.0769 4.07738 11.1074 4.14435 11.1683 4.20089C11.2292 4.25744 11.3013 4.28571 11.3846 4.28571H12C12.0833 4.28571 12.1554 4.25744 12.2163 4.20089C12.2772 4.14435 12.3077 4.07738 12.3077 4ZM16 3.42857V14.8571C16 15.1667 15.8782 15.4345 15.6346 15.6607C15.391 15.8869 15.1026 16 14.7692 16H1.23077C0.897436 16 0.608974 15.8869 0.365385 15.6607C0.121795 15.4345 0 15.1667 0 14.8571V3.42857C0 3.11905 0.121795 2.85119 0.365385 2.625C0.608974 2.39881 0.897436 2.28571 1.23077 2.28571H2.46154V1.42857C2.46154 1.03571 2.61218 0.699405 2.91346 0.419643C3.21474 0.139881 3.57692 0 4 0H4.61538C5.03846 0 5.40064 0.139881 5.70192 0.419643C6.00321 0.699405 6.15385 1.03571 6.15385 1.42857V2.28571H9.84615V1.42857C9.84615 1.03571 9.9968 0.699405 10.2981 0.419643C10.5994 0.139881 10.9615 0 11.3846 0H12C12.4231 0 12.7853 0.139881 13.0865 0.419643C13.3878 0.699405 13.5385 1.03571 13.5385 1.42857V2.28571H14.7692C15.1026 2.28571 15.391 2.39881 15.6346 2.625C15.8782 2.85119 16 3.11905 16 3.42857Z" fill="#2F2C5D"/>
</svg>
