<svg width="22" height="16" viewBox="0 0 22 16" fill="none" xmlns="http://www.w3.org/2000/svg">
<path d="M20.3333 13.3333C20.3333 13.687 20.1928 14.0261 19.9427 14.2761C19.6927 14.5262 19.3535 14.6667 18.9999 14.6667H2.99992C2.6463 14.6667 2.30716 14.5262 2.05711 14.2761C1.80706 14.0261 1.66659 13.687 1.66659 13.3333V5.33333C1.66659 4.97971 1.80706 4.64057 2.05711 4.39052C2.30716 4.14048 2.6463 4 2.99992 4H4.56259C5.6229 3.99942 6.63961 3.57787 7.38925 2.828L8.49592 1.724C8.74526 1.47459 9.08325 1.33411 9.43592 1.33333H12.5613C12.9148 1.33341 13.2539 1.47393 13.5039 1.724L14.6079 2.828C14.9794 3.19962 15.4205 3.4944 15.906 3.69549C16.3914 3.89659 16.9118 4.00006 17.4373 4H18.9999C19.3535 4 19.6927 4.14048 19.9427 4.39052C20.1928 4.64057 20.3333 4.97971 20.3333 5.33333V13.3333ZM2.99992 2.66667C2.29267 2.66667 1.6144 2.94762 1.1143 3.44772C0.614204 3.94781 0.333252 4.62609 0.333252 5.33333L0.333252 13.3333C0.333252 14.0406 0.614204 14.7189 1.1143 15.219C1.6144 15.719 2.29267 16 2.99992 16H18.9999C19.7072 16 20.3854 15.719 20.8855 15.219C21.3856 14.7189 21.6666 14.0406 21.6666 13.3333V5.33333C21.6666 4.62609 21.3856 3.94781 20.8855 3.44772C20.3854 2.94762 19.7072 2.66667 18.9999 2.66667H17.4373C16.7301 2.66652 16.0519 2.38547 15.5519 1.88533L14.4479 0.781333C13.9479 0.281202 13.2698 0.000151033 12.5626 0H9.43725C8.73007 0.000151033 8.0519 0.281202 7.55192 0.781333L6.44792 1.88533C5.94794 2.38547 5.26977 2.66652 4.56259 2.66667H2.99992Z" fill="black"/>
<path d="M10.9998 12C10.1157 12 9.26785 11.6488 8.64273 11.0237C8.01761 10.3986 7.66642 9.55072 7.66642 8.66667C7.66642 7.78261 8.01761 6.93477 8.64273 6.30964C9.26785 5.68452 10.1157 5.33333 10.9998 5.33333C11.8838 5.33333 12.7317 5.68452 13.3568 6.30964C13.9819 6.93477 14.3331 7.78261 14.3331 8.66667C14.3331 9.55072 13.9819 10.3986 13.3568 11.0237C12.7317 11.6488 11.8838 12 10.9998 12ZM10.9998 13.3333C12.2374 13.3333 13.4244 12.8417 14.2996 11.9665C15.1748 11.0913 15.6664 9.90434 15.6664 8.66667C15.6664 7.42899 15.1748 6.242 14.2996 5.36684C13.4244 4.49167 12.2374 4 10.9998 4C9.76208 4 8.57509 4.49167 7.69992 5.36684C6.82475 6.242 6.33309 7.42899 6.33309 8.66667C6.33309 9.90434 6.82475 11.0913 7.69992 11.9665C8.57509 12.8417 9.76208 13.3333 10.9998 13.3333V13.3333ZM4.33309 6C4.33309 6.17681 4.26285 6.34638 4.13783 6.4714C4.0128 6.59643 3.84323 6.66667 3.66642 6.66667C3.48961 6.66667 3.32004 6.59643 3.19502 6.4714C3.06999 6.34638 2.99976 6.17681 2.99976 6C2.99976 5.82319 3.06999 5.65362 3.19502 5.5286C3.32004 5.40357 3.48961 5.33333 3.66642 5.33333C3.84323 5.33333 4.0128 5.40357 4.13783 5.5286C4.26285 5.65362 4.33309 5.82319 4.33309 6V6Z" fill="black"/>
</svg>
