<svg width="24" height="24" viewBox="0 0 24 24" fill="none" xmlns="http://www.w3.org/2000/svg">
<path d="M0 6C0 5.20435 0.316071 4.44129 0.87868 3.87868C1.44129 3.31607 2.20435 3 3 3H21C21.7956 3 22.5587 3.31607 23.1213 3.87868C23.6839 4.44129 24 5.20435 24 6V18C24 18.7956 23.6839 19.5587 23.1213 20.1213C22.5587 20.6839 21.7956 21 21 21H3C2.20435 21 1.44129 20.6839 0.87868 20.1213C0.316071 19.5587 0 18.7956 0 18V6ZM3 4.5C2.60218 4.5 2.22064 4.65804 1.93934 4.93934C1.65804 5.22064 1.5 5.60218 1.5 6V7.5H22.5V6C22.5 5.60218 22.342 5.22064 22.0607 4.93934C21.7794 4.65804 21.3978 4.5 21 4.5H3ZM22.5 10.5H1.5V18C1.5 18.3978 1.65804 18.7794 1.93934 19.0607C2.22064 19.342 2.60218 19.5 3 19.5H21C21.3978 19.5 21.7794 19.342 22.0607 19.0607C22.342 18.7794 22.5 18.3978 22.5 18V10.5Z" fill="#2F2C5D"/>
<path d="M3.5 15C3.5 14.7348 3.60536 14.4804 3.79289 14.2929C3.98043 14.1054 4.23478 14 4.5 14H6C6.26522 14 6.51957 14.1054 6.70711 14.2929C6.89464 14.4804 7 14.7348 7 15V16.5C7 16.7652 6.89464 17.0196 6.70711 17.2071C6.51957 17.3946 6.26522 17.5 6 17.5H4.5C4.23478 17.5 3.98043 17.3946 3.79289 17.2071C3.60536 17.0196 3.5 16.7652 3.5 16.5V15Z" stroke="#2F2C5D"/>
</svg>
