<svg width="24" height="24" viewBox="0 0 24 24" fill="none" xmlns="http://www.w3.org/2000/svg">
<g clip-path="url(#clip0_1269_19460)">
<path d="M18.5426 2.45747L17.1302 3.8699C16.8938 4.10629 17.0187 4.6145 17.4093 5.00502L19.5306 7.12634C19.9211 7.51686 20.4293 7.64182 20.6657 7.40544L22.0781 5.99301C22.3145 5.75662 22.1895 5.24842 21.799 4.85789L19.6777 2.73657C19.2872 2.34605 18.779 2.22109 18.5426 2.45747Z" fill="#2F2C5D"/>
<path d="M4.50391 16.4962L15.5251 5.47492C15.7605 5.23951 16.2713 5.36511 16.6603 5.75402L18.7816 7.87534C19.1705 8.26425 19.2961 8.77505 19.0607 9.01045L8.03944 20.0317L4.50391 16.4962Z" fill="#2F2C5D"/>
<path d="M4.50385 16.4961L3.62635 20.6263L3.90919 20.9092L8.03939 20.0317L4.50385 16.4961Z" fill="#2F2C5D"/>
</g>
<defs>
<clipPath id="clip0_1269_19460">
<rect width="24" height="5" fill="white" transform="translate(2 19) rotate(-45)"/>
</clipPath>
</defs>
</svg>
