<svg width="16" height="16" viewBox="0 0 16 16" fill="none" xmlns="http://www.w3.org/2000/svg">
<path d="M8 0C6.41775 0 4.87104 0.469182 3.55544 1.34823C2.23985 2.22728 1.21447 3.47671 0.608965 4.93852C0.00346402 6.40033 -0.15496 8.00887 0.153722 9.56072C0.462404 11.1126 1.22433 12.538 2.34315 13.6569C3.46197 14.7757 4.88743 15.5376 6.43928 15.8463C7.99113 16.155 9.59966 15.9965 11.0615 15.391C12.5233 14.7855 13.7727 13.7601 14.6518 12.4446C15.5308 11.129 16 9.58224 16 7.99999C15.9987 5.87865 15.1554 3.84458 13.6554 2.34457C12.1554 0.844563 10.1213 0.00129864 8 0ZM9.10294 3.06862L8.70588 9.63235H7.23529L6.81863 3.05882L9.10294 3.06862ZM8 12.9314C7.73006 12.9323 7.46591 12.8531 7.24106 12.7037C7.01621 12.5544 6.84078 12.3416 6.73703 12.0924C6.63328 11.8432 6.60588 11.5688 6.65831 11.304C6.71074 11.0392 6.84062 10.7959 7.0315 10.605C7.22238 10.4141 7.46565 10.2842 7.73045 10.2318C7.99525 10.1794 8.26966 10.2068 8.51887 10.3106C8.76808 10.4143 8.98086 10.5897 9.13023 10.8146C9.27959 11.0394 9.35881 11.3036 9.35784 11.5735C9.35784 11.9336 9.21479 12.279 8.96014 12.5337C8.7055 12.7883 8.36012 12.9314 8 12.9314Z" fill="#FB894B"/>
</svg>
