<svg width="24" height="24" viewBox="0 0 24 24" fill="none" xmlns="http://www.w3.org/2000/svg">
<g clip-path="url(#clip0_838_17014)">
<path d="M21.7424 5.91304C19.3995 4.56061 16.4036 5.36425 15.0497 7.70713L11.6368 13.6193C10.6492 15.3265 11.9206 15.9231 13.3382 16.773L16.6222 18.6684C17.7343 19.3099 19.1548 18.9291 19.7963 17.8185L23.3048 11.7427C24.4834 9.701 23.784 7.09174 21.7424 5.91304Z" fill="#EA4335"/>
<path d="M17.8807 8.36021L14.5967 6.4648C12.7838 5.45844 11.7572 5.39183 11.0128 6.57485L6.16933 14.9631C4.81688 17.3045 5.62197 20.299 7.96338 21.6485C10.005 22.8272 12.6144 22.1278 13.793 20.0861L18.7293 11.5357C19.3736 10.4236 18.9928 9.00169 17.8807 8.36021Z" fill="#FBBC04"/>
<path d="M18.5128 4.04768L16.2061 2.71552C13.6547 1.24291 10.3924 2.11605 8.91981 4.66742L4.52801 12.2737C3.87931 13.396 4.26447 14.8324 5.38669 15.4796L7.96993 16.9711C9.24558 17.7081 10.876 17.2708 11.6131 15.9951L16.6304 7.3057C17.6701 5.50581 19.9709 4.88897 21.7708 5.92863L18.5128 4.04768Z" fill="#34A853"/>
<path d="M9.54374 6.84408L7.05029 5.40767C5.93821 4.76765 4.51774 5.14703 3.87628 6.2562L0.884713 11.4256C-0.587906 13.9697 0.285239 17.2248 2.83661 18.6931L4.73494 19.7863L7.03725 21.1127L8.03638 21.6875C6.26257 20.5002 5.6993 18.1211 6.78384 16.2474L7.55852 14.9094L10.3952 10.008C11.0352 8.90171 10.6544 7.48409 9.54374 6.84408Z" fill="#4285F4"/>
</g>
<defs>
<clipPath id="clip0_838_17014">
<rect width="24" height="24" fill="white"/>
</clipPath>
</defs>
</svg>
