<svg width="24" height="24" viewBox="0 0 24 24" fill="none" xmlns="http://www.w3.org/2000/svg">
<g clip-path="url(#clip0_838_17044)">
<path d="M12.0378 0.862969C11.7689 0.742417 11.4605 0.746627 11.1949 0.874478L1.31618 5.63093C0.97006 5.79758 0.75 6.14778 0.75 6.53193V7.62482C0.75 8.17711 1.19772 8.62482 1.75 8.62482H22.25C22.8023 8.62482 23.25 8.1771 23.25 7.62482V6.53671C23.25 6.14267 23.0186 5.78538 22.6591 5.6242L12.0378 0.862969ZM21.75 6.96442C21.75 7.05301 21.6782 7.12482 21.5896 7.12482H2.42116C2.32663 7.12482 2.25 7.04819 2.25 6.95366C2.25 6.88791 2.28767 6.82797 2.34691 6.79944L11.2175 2.52841C11.4831 2.40056 11.7915 2.39635 12.0604 2.51691L21.6552 6.81805C21.7129 6.8439 21.75 6.90121 21.75 6.96442Z" fill="#2F2C5D"/>
<path d="M2.25 19.875C2.25 19.4608 2.58579 19.125 3 19.125H21C21.4142 19.125 21.75 19.4608 21.75 19.875C21.75 20.2892 21.4142 20.625 21 20.625H3C2.58579 20.625 2.25 20.2892 2.25 19.875Z" fill="#2F2C5D"/>
<path d="M0.75 22.5C0.75 22.0858 1.08579 21.75 1.5 21.75H22.5C22.9142 21.75 23.25 22.0858 23.25 22.5C23.25 22.9142 22.9142 23.25 22.5 23.25H1.5C1.08579 23.25 0.75 22.9142 0.75 22.5Z" fill="#2F2C5D"/>
<path d="M2.625 10.875C2.625 10.4608 2.96079 10.125 3.375 10.125C3.78921 10.125 4.125 10.4608 4.125 10.875V16.875C4.125 17.2892 3.78921 17.625 3.375 17.625C2.96079 17.625 2.625 17.2892 2.625 16.875V10.875Z" fill="#2F2C5D"/>
<path d="M19.875 10.875C19.875 10.4608 20.2108 10.125 20.625 10.125C21.0392 10.125 21.375 10.4608 21.375 10.875V16.875C21.375 17.2892 21.0392 17.625 20.625 17.625C20.2108 17.625 19.875 17.2892 19.875 16.875V10.875Z" fill="#2F2C5D"/>
<path d="M15.375 10.875C15.375 10.4608 15.7108 10.125 16.125 10.125C16.5392 10.125 16.875 10.4608 16.875 10.875V16.875C16.875 17.2892 16.5392 17.625 16.125 17.625C15.7108 17.625 15.375 17.2892 15.375 16.875V10.875Z" fill="#2F2C5D"/>
<path d="M7.125 10.875C7.125 10.4608 7.46079 10.125 7.875 10.125C8.28921 10.125 8.625 10.4608 8.625 10.875V16.875C8.625 17.2892 8.28921 17.625 7.875 17.625C7.46079 17.625 7.125 17.2892 7.125 16.875V10.875Z" fill="#2F2C5D"/>
<path d="M11.25 10.875C11.25 10.4608 11.5858 10.125 12 10.125C12.4142 10.125 12.75 10.4608 12.75 10.875V16.875C12.75 17.2892 12.4142 17.625 12 17.625C11.5858 17.625 11.25 17.2892 11.25 16.875V10.875Z" fill="#2F2C5D"/>
</g>
<defs>
<clipPath id="clip0_838_17044">
<rect width="24" height="24" fill="white"/>
</clipPath>
</defs>
</svg>
