<svg width="160" height="160" viewBox="0 0 160 160" fill="none" xmlns="http://www.w3.org/2000/svg">
<g opacity="0.75" clip-path="url(#clip0_906_19011)">
<path d="M79.9976 159.995C124.179 159.995 159.995 124.179 159.995 79.9976C159.995 35.8161 124.179 0 79.9976 0C35.8161 0 0 35.8161 0 79.9976C0 124.179 35.8161 159.995 79.9976 159.995Z" fill="#E6E6E6"/>
<path d="M53.3153 119.994C44.2177 113.865 37.4971 104.802 34.2748 94.3159" stroke="#B3B3B3" stroke-width="2" stroke-miterlimit="10" stroke-linecap="round" stroke-dasharray="8 12"/>
<path d="M126.891 89.6868C124.505 101.599 117.674 112.156 107.787 119.215" stroke="#B3B3B3" stroke-width="2" stroke-miterlimit="10" stroke-linecap="round" stroke-dasharray="8 12"/>
<path d="M56.2986 38.7962C64.5862 34.0674 74.0985 31.925 83.6131 32.6443C93.1277 33.3635 102.21 36.9116 109.692 42.8326" stroke="#B3B3B3" stroke-width="2" stroke-miterlimit="10" stroke-linecap="round" stroke-dasharray="8 12"/>
<path d="M25.9033 74.4818V54.5057C25.9036 53.9755 26.1131 53.4668 26.4862 53.09C26.6639 52.9002 26.8796 52.7501 27.1194 52.6496C27.3592 52.5492 27.6175 52.5006 27.8774 52.5071H29.8368V51.0033C29.8317 50.6745 29.8928 50.3481 30.0165 50.0434C30.1402 49.7387 30.324 49.4621 30.5569 49.23C30.7806 48.9914 31.0517 48.8024 31.3529 48.675C31.6541 48.5476 31.9787 48.4847 32.3057 48.4903H33.2854C33.9424 48.5019 34.5683 48.7724 35.0269 49.243C35.4856 49.7136 35.7399 50.3462 35.7346 51.0033V52.5071H41.6618V51.0033C41.6577 50.6751 41.7188 50.3493 41.8415 50.0449C41.9643 49.7405 42.1463 49.4635 42.377 49.23C42.602 48.9918 42.8741 48.803 43.176 48.6756C43.4779 48.5483 43.803 48.4852 44.1307 48.4903H45.1104C45.7682 48.4994 46.3956 48.7691 46.8548 49.2402C47.314 49.7113 47.5675 50.3454 47.5596 51.0033V52.5071H49.519C50.0431 52.5149 50.5429 52.7291 50.9098 53.1034C51.2767 53.4777 51.4811 53.9816 51.4784 54.5057V74.4622C51.4781 74.9925 51.2687 75.5012 50.8955 75.8779C50.7179 76.0677 50.5021 76.2178 50.2623 76.3183C50.0226 76.4188 49.7642 76.4674 49.5043 76.4608H27.8774C27.3601 76.4532 26.8661 76.2444 26.5003 75.8785C26.1345 75.5127 25.9256 75.0187 25.918 74.5014L25.9033 74.4818ZM27.8627 74.4818H49.5925V58.5029H27.8774L27.8627 74.4818ZM31.8109 55.5148C31.8079 55.5814 31.8185 55.6479 31.8421 55.7102C31.8657 55.7725 31.9018 55.8294 31.9481 55.8773C31.9958 55.9221 32.0521 55.9569 32.1135 55.9796C32.1749 56.0024 32.2402 56.0125 32.3057 56.0096H33.2854C33.3508 56.0125 33.4161 56.0024 33.4776 55.9796C33.539 55.9569 33.5952 55.9221 33.643 55.8773C33.6893 55.8294 33.7253 55.7725 33.7489 55.7102C33.7725 55.6479 33.7831 55.5814 33.7801 55.5148V51.0278C33.7819 50.8939 33.7329 50.7644 33.643 50.6653C33.5952 50.6205 33.539 50.5856 33.4776 50.5629C33.4161 50.5402 33.3508 50.53 33.2854 50.533H32.3057C32.2402 50.53 32.1749 50.5402 32.1135 50.5629C32.0521 50.5856 31.9958 50.6205 31.9481 50.6653C31.9018 50.7132 31.8657 50.7701 31.8421 50.8324C31.8185 50.8947 31.8079 50.9612 31.8109 51.0278V55.5148ZM43.6653 55.5148C43.6617 55.6481 43.709 55.7777 43.7976 55.8773C43.8459 55.9227 43.9029 55.9579 43.9652 55.9806C44.0276 56.0034 44.0938 56.0132 44.1601 56.0096H45.1398C45.273 56.0132 45.4026 55.9659 45.5023 55.8773C45.5477 55.829 45.5828 55.7719 45.6056 55.7096C45.6283 55.6473 45.6382 55.581 45.6345 55.5148V51.0278C45.6381 50.8945 45.5908 50.7649 45.5023 50.6653C45.4539 50.6198 45.3969 50.5847 45.3346 50.562C45.2723 50.5392 45.206 50.5294 45.1398 50.533H44.1601C44.0944 50.5279 44.0284 50.537 43.9667 50.5598C43.9049 50.5826 43.8488 50.6185 43.8022 50.665C43.7557 50.7116 43.7198 50.7677 43.697 50.8295C43.6742 50.8913 43.6651 50.9572 43.6702 51.0229L43.6653 55.5148Z" fill="#808080"/>
<path d="M33.0502 60.1047H29.8368V63.3181H33.0502V60.1047Z" fill="#808080"/>
<path d="M37.9928 60.1047H34.7794V63.3181H37.9928V60.1047Z" fill="#808080"/>
<path d="M42.9354 60.1047H39.722V63.3181H42.9354V60.1047Z" fill="#808080"/>
<path d="M47.878 60.1047H44.6646V63.3181H47.878V60.1047Z" fill="#808080"/>
<path d="M32.9327 64.8857H29.7192V68.0991H32.9327V64.8857Z" fill="#808080"/>
<path d="M37.8753 64.8857H34.6619V68.0991H37.8753V64.8857Z" fill="#808080"/>
<path d="M42.8179 64.8857H39.6044V68.0991H42.8179V64.8857Z" fill="#808080"/>
<path d="M47.7605 64.8857H44.5471V68.0991H47.7605V64.8857Z" fill="#808080"/>
<path d="M32.9327 69.4021H29.7192V72.6155H32.9327V69.4021Z" fill="#808080"/>
<path d="M37.8753 69.4021H34.6619V72.6155H37.8753V69.4021Z" fill="#808080"/>
<path d="M42.8179 69.4021H39.6044V72.6155H42.8179V69.4021Z" fill="#808080"/>
<path d="M128.38 51.7429H133.176L134.929 49.0536H116.922L115.169 51.7429H118.211C121.365 51.7429 124.285 51.9732 125.456 54.682H116.922L115.169 57.3713H125.808V57.4889C125.808 59.4483 124.167 62.5148 118.794 62.5148H116.104V65.0865L126.626 78.3124H131.417L120.43 64.6358C124.985 64.4056 129.198 61.8339 129.781 57.3909H133.171L134.925 54.7016H129.659C129.539 53.6096 129.093 52.5788 128.38 51.7429Z" fill="#808080"/>
<path d="M61.9269 129.683C61.9269 129.683 62.6372 133.372 68.3685 133.342L69.838 135.076H90.1473L91.6168 133.342C97.3481 133.372 98.0583 129.683 98.0583 129.683H61.9269Z" fill="#808080"/>
<path d="M67.5994 128.596C67.5994 128.596 66.6785 124.143 70.2985 123.937C72.9437 123.79 75.5007 127.44 75.5007 127.44C75.1251 126.712 74.654 126.039 74.0997 125.436C73.5106 124.852 72.8786 124.314 72.2089 123.825C72.2089 123.825 73.8548 119.906 76.5 119.695C80.5119 119.411 82.2949 125.838 82.2949 125.838C82.1486 124.96 81.9207 124.097 81.614 123.261C81.2026 122.264 80.6208 121.346 79.8947 120.547C79.8947 120.547 82.1284 117.794 85.5916 118.936C88.1585 119.783 89.4125 122.365 89.4125 122.365C88.9144 122.429 88.4228 122.535 87.9429 122.683C87.3695 122.872 86.8138 123.112 86.2823 123.398C86.2823 123.398 90.3187 121.767 92.474 123.153C93.6399 123.908 94.2522 126.269 93.3607 128.61L67.5994 128.596Z" fill="#808080"/>
<path d="M72.6008 105.45C73.6792 105.793 74.5929 106.523 75.1669 107.498C75.7409 108.473 75.9348 109.626 75.7113 110.736C75.4223 112.445 74.1585 114.219 73.796 115.58C73.6398 116.751 73.6184 117.936 73.7323 119.112C72.9125 118.437 72.2974 117.547 71.9564 116.541C71.6155 115.535 71.5621 114.454 71.8023 113.42C72.1501 111.794 73.0123 110.447 73.12 108.855C73.0699 107.704 72.8958 106.563 72.6008 105.45Z" fill="#CCCCCC"/>
<path d="M80.6441 99.8022C81.472 101.688 81.8198 103.883 82.9023 105.494C83.518 106.332 83.8973 107.319 84.0008 108.353C84.1042 109.387 83.9278 110.43 83.4902 111.373C82.5105 113.68 80.6147 114.557 80.2425 117.187C78.2831 115.384 79.5763 112.23 80.0955 110.172C80.2081 109.705 80.2227 109.22 80.1384 108.747C80.0541 108.274 79.8727 107.824 79.6057 107.424C79.0363 106.187 78.8316 104.812 79.0156 103.462C79.1995 102.112 79.7644 100.843 80.6441 99.8022Z" fill="#CCCCCC"/>
<path d="M88.2075 108.492C88.1211 109.366 88.2094 110.249 88.4671 111.088C88.7218 111.882 89.1529 112.068 89.4027 112.93C89.9954 114.63 90.3138 117.51 88.6434 118.808C88.6728 117.31 88.1536 116.413 87.3306 115.379C86.7281 114.596 86.1207 113.969 85.9933 112.818C85.768 111.079 86.6791 109.207 88.2075 108.522V108.492Z" fill="#CCCCCC"/>
<path d="M82.7701 79.9976L87.5804 75.1872C87.9327 74.8171 88.1264 74.324 88.1204 73.813C88.1143 73.3021 87.9088 72.8137 87.5478 72.4521C87.1868 72.0904 86.6988 71.8841 86.1879 71.8771C85.677 71.8701 85.1835 72.063 84.8128 72.4147L79.9975 77.225L75.1872 72.4147C74.8164 72.063 74.323 71.8701 73.812 71.8771C73.3011 71.8841 72.8131 72.0904 72.4521 72.4521C72.0911 72.8137 71.8857 73.3021 71.8796 73.813C71.8735 74.324 72.0672 74.8171 72.4195 75.1872L77.2299 79.9976L72.4195 84.8079C72.2298 84.9879 72.078 85.204 71.973 85.4436C71.8681 85.6831 71.8122 85.9413 71.8087 86.2028C71.8051 86.4643 71.8539 86.7239 71.9522 86.9662C72.0505 87.2086 72.1964 87.4288 72.3811 87.6139C72.5659 87.799 72.7859 87.9452 73.028 88.0439C73.2702 88.1427 73.5297 88.192 73.7912 88.1889C74.0527 88.1857 74.311 88.1303 74.5507 88.0258C74.7905 87.9213 75.0069 87.7699 75.1872 87.5804L79.9975 82.7701L84.8128 87.5804C85.1835 87.9321 85.677 88.125 86.1879 88.118C86.6988 88.111 87.1868 87.9047 87.5478 87.543C87.9088 87.1814 88.1143 86.693 88.1204 86.1821C88.1264 85.6711 87.9327 85.178 87.5804 84.8079L82.7701 79.9976Z" fill="#666666"/>
</g>
<defs>
<clipPath id="clip0_906_19011">
<rect width="160" height="160" fill="white"/>
</clipPath>
</defs>
</svg>
