<svg width="168" height="168" viewBox="0 0 168 168" fill="none" xmlns="http://www.w3.org/2000/svg">
<path d="M83.9999 161.538C126.823 161.538 161.538 126.823 161.538 84C161.538 41.1767 126.823 6.46155 83.9999 6.46155C41.1766 6.46155 6.46143 41.1767 6.46143 84C6.46143 126.823 41.1766 161.538 83.9999 161.538Z" fill="#FFD814"/>
<path d="M84 84C98.9882 84 111.138 71.8497 111.138 56.8615C111.138 41.8734 98.9882 29.7231 84 29.7231C69.0119 29.7231 56.8616 41.8734 56.8616 56.8615C56.8616 71.8497 69.0119 84 84 84Z" fill="#2F2C5D" stroke="#2F2C5D" stroke-width="4" stroke-miterlimit="10"/>
<path d="M138.6 139.052C124.578 153.009 105.323 161.538 83.9999 161.538C62.6768 161.538 43.4214 153.009 29.3999 139.052C29.3999 139.052 29.723 84 83.9999 84C138.277 84 138.6 139.052 138.6 139.052Z" fill="#2F2C5D" stroke="#2F2C5D" stroke-width="4" stroke-miterlimit="10"/>
</svg>
