<svg width="16" height="16" viewBox="0 0 16 16" fill="none" xmlns="http://www.w3.org/2000/svg">
<circle cx="8" cy="8" r="8" fill="#EBFFF1"/>
<path d="M14.4241 8.15519C14.4275 7.87907 14.2065 7.65244 13.9303 7.649C13.6542 7.64557 13.4276 7.86662 13.4242 8.14274L14.4241 8.15519ZM2.50576 10.6504L2.05419 10.865L2.50576 10.6504ZM7.9213 2.07425L7.92157 2.57425L7.9213 2.07425ZM13.4242 8.14274C13.4087 9.38512 12.973 10.5857 12.1881 11.5488L12.9633 12.1806C13.8909 11.0423 14.4058 9.62346 14.4241 8.15519L13.4242 8.14274ZM12.1881 11.5488C11.4032 12.512 10.3152 13.181 9.10154 13.4468L9.31554 14.4237C10.7499 14.1095 12.0356 13.3188 12.9633 12.1806L12.1881 11.5488ZM9.10154 13.4468C7.88785 13.7127 6.61988 13.5598 5.50418 13.013L5.06411 13.911C6.38266 14.5572 7.88117 14.7379 9.31554 14.4237L9.10154 13.4468ZM5.50418 13.013C4.38848 12.4663 3.49079 11.5578 2.95733 10.4357L2.05419 10.865C2.68464 12.1912 3.74555 13.2648 5.06411 13.911L5.50418 13.013ZM2.95733 10.4357C2.42387 9.31356 2.28607 8.04386 2.56638 6.83341L1.59216 6.6078C1.26088 8.03833 1.42374 9.53888 2.05419 10.865L2.95733 10.4357ZM2.56638 6.83341C2.84669 5.62296 3.5286 4.54309 4.50102 3.76969L3.87856 2.98704C2.72933 3.90106 1.92344 5.17727 1.59216 6.6078L2.56638 6.83341ZM4.50102 3.76969C5.47345 2.99629 6.67909 2.57493 7.92157 2.57425L7.92102 1.57425C6.45264 1.57506 5.02779 2.07302 3.87856 2.98704L4.50102 3.76969ZM7.92157 2.57425C9.16405 2.57357 10.3702 2.99361 11.3434 3.76594L11.965 2.98262C10.8148 2.06985 9.38941 1.57345 7.92102 1.57425L7.92157 2.57425Z" fill="#04B33F"/>
<path d="M11 1L13 4H9.5L11 1Z" fill="#04B33F"/>
</svg>
