<svg width="24" height="24" viewBox="0 0 24 24" fill="none" xmlns="http://www.w3.org/2000/svg">
<g clip-path="url(#clip0_1287_14636)">
<path d="M12 23.52C18.3623 23.52 23.52 18.3623 23.52 12C23.52 5.63769 18.3623 0.480011 12 0.480011C5.63766 0.480011 0.47998 5.63769 0.47998 12C0.47998 18.3623 5.63766 23.52 12 23.52Z" fill="#FFD814" stroke="#2F2C5D" stroke-miterlimit="10"/>
<path d="M12 12C14.2268 12 16.032 10.1948 16.032 7.968C16.032 5.74119 14.2268 3.936 12 3.936C9.77321 3.936 7.96802 5.74119 7.96802 7.968C7.96802 10.1948 9.77321 12 12 12Z" fill="#2F2C5D"/>
<path d="M20.112 20.1792C18.0288 22.2528 15.168 23.52 12 23.52C8.832 23.52 5.9712 22.2528 3.888 20.1792C3.888 20.1792 3.936 12 12 12C20.064 12 20.112 20.1792 20.112 20.1792Z" fill="#2F2C5D"/>
</g>
<defs>
<clipPath id="clip0_1287_14636">
<rect width="24" height="24" fill="white"/>
</clipPath>
</defs>
</svg>
