<svg width="24" height="24" viewBox="0 0 24 24" fill="none" xmlns="http://www.w3.org/2000/svg">
<path d="M22.9674 5.58089C22.8632 5.47567 22.739 5.39224 22.6022 5.33543C22.4654 5.27862 22.3187 5.24958 22.1706 5.25H21.375V3.375C21.3747 3.07673 21.256 2.79078 21.0451 2.57987C20.8342 2.36897 20.5483 2.25033 20.25 2.25H4.06064C3.18261 2.25001 2.34054 2.59882 1.71968 3.21968C1.09882 3.84054 0.750012 4.68261 0.75 5.56064V18.4394C0.750012 19.3174 1.09882 20.1595 1.71968 20.7803C2.34054 21.4012 3.18261 21.75 4.06064 21.75H22.1263C22.4238 21.7494 22.7091 21.6312 22.9198 21.4211C23.1306 21.2111 23.2497 20.9262 23.2513 20.6286L23.2955 6.37884C23.2964 6.23073 23.2679 6.08391 23.2116 5.94692C23.1553 5.80994 23.0723 5.68551 22.9674 5.58089ZM21.7525 20.25H4.06064C3.58043 20.25 3.11989 20.0592 2.78032 19.7197C2.44076 19.3801 2.25 18.9196 2.25 18.4394V5.56064C2.25 5.08043 2.44076 4.61989 2.78032 4.28032C3.11989 3.94076 3.58043 3.75 4.06064 3.75H19.875V5.25H4.125V6.75H21.7944L21.7525 20.25Z" fill="#2F2C5D"/>
<path d="M16.5 13C16.5 12.7239 16.7239 12.5 17 12.5H19C19.2761 12.5 19.5 12.7239 19.5 13V15C19.5 15.2761 19.2761 15.5 19 15.5H17C16.7239 15.5 16.5 15.2761 16.5 15V13Z" stroke="#2F2C5D"/>
</svg>
